<?xml version="1.0" encoding="iso-8859-1"?>
<!-- Generator: Adobe Illustrator 19.0.0, SVG Export Plug-In . SVG Version: 6.00 Build 0)  -->
<svg version="1.1" id="Layer_1" xmlns="http://www.w3.org/2000/svg" xmlns:xlink="http://www.w3.org/1999/xlink" x="0px" y="0px"
	 viewBox="0 0 512 512" style="enable-background:new 0 0 512 512;" xml:space="preserve">
<path d="M281.111,512H75.943c-21.864-0.064-39.568-17.768-39.632-39.632V39.632C36.375,17.768,54.079,0.064,75.943,0h205.176
	c21.864,0.064,39.568,17.768,39.632,39.632v432.736C320.679,494.232,302.975,511.936,281.111,512z"/>
<rect x="55.071" y="40.4" style="fill:#FFFFFF;" width="246.912" height="403.76"/>
<g>
	<path style="fill:#CCCCCC;" d="M215.559,24.424h-50.528c-2.28-0.008-4.12-1.848-4.128-4.128l0,0c0.008-2.28,1.848-4.12,4.128-4.128
		h50.528c2.28,0,4.128,1.848,4.136,4.128l0,0C219.687,22.576,217.839,24.424,215.559,24.424z"/>
	<circle style="fill:#CCCCCC;" cx="141.495" cy="20.296" r="4.128"/>
	<path style="fill:#CCCCCC;" d="M178.527,497.6c-10.784,0-19.52-8.736-19.52-19.52s8.736-19.52,19.52-19.52
		c10.784,0,19.52,8.736,19.52,19.52l0,0C198.031,488.856,189.303,497.584,178.527,497.6z M178.527,462.552
		c-8.568,0-15.52,6.952-15.52,15.52s6.952,15.52,15.52,15.52s15.52-6.952,15.52-15.52l0,0c0.008-8.584-6.936-15.544-15.52-15.552
		l0,0V462.552z"/>
</g>
<path d="M143.535,278.16c-4.04-0.144-7.288-3.392-7.44-7.432V184.6c0.152-4.04,3.4-7.288,7.44-7.432h285.8
	c4.04,0.152,7.28,3.392,7.432,7.432v86.88c-0.816,3.88-4.232,6.656-8.192,6.672L143.535,278.16z"/>
<g>
	<path style="fill:#E21B1B;" d="M429.295,181.176c1.824,0.16,3.272,1.608,3.432,3.432v86.144c-0.448,1.96-2.176,3.36-4.192,3.4h-285
		c-1.824-0.16-3.272-1.608-3.432-3.432v-86.112c0.16-1.824,1.608-3.272,3.432-3.432H429.295 M429.295,173.176h-285.76
		c-6.248,0.152-11.28,5.184-11.432,11.432v86.12c0.152,6.248,5.184,11.28,11.432,11.432h285.032
		c6.152-0.04,11.344-4.584,12.192-10.672v-86.88C440.607,178.344,435.559,173.312,429.295,173.176z"/>
	
		<rect x="430.701" y="339.028" transform="matrix(0.7071 -0.7071 0.7071 0.7071 -131.8962 422.4852)" style="fill:#E21B1B;" width="26.672" height="62.855"/>
	<polygon style="fill:#E21B1B;" points="393.511,377.456 381.319,308.864 449.911,321.064 	"/>
	<polygon style="fill:#E21B1B;" points="136.855,227.664 136.855,176 188.519,176 	"/>
</g>
<g>
	<path style="fill:#FFFFFF;" d="M219.047,200.704c4.712-0.784,9.472-1.152,14.248-1.112c5.352-0.512,10.728,0.688,15.36,3.424
		c3.552,2.072,5.696,5.912,5.6,10.024c-0.152,5.408-3.768,10.104-8.96,11.624v0.16c6.312,1.288,10.84,6.848,10.832,13.288
		c0.072,4.288-1.832,8.376-5.176,11.072c-5.832,3.968-12.872,5.744-19.888,5.008c-4.008,0.016-8.016-0.224-12-0.712L219.047,200.704
		z M228.759,221.872h5.016c6.768,0,10.584-3.2,10.584-7.72c0-5.016-3.824-7.32-10.032-7.32c-1.872-0.064-3.752,0.064-5.6,0.4
		L228.759,221.872z M228.759,246.544c1.72,0.184,3.44,0.264,5.168,0.24c6.288,0,11.856-2.4,11.856-8.992
		c0-6.208-5.408-8.76-12.168-8.76h-4.856V246.544z"/>
	<path style="fill:#FFFFFF;" d="M274.623,200v31.272c0,10.504,4.384,15.368,10.984,15.368c7.088,0,11.304-4.856,11.304-15.368V200
		h9.792v30.64c0,16.552-8.512,23.872-21.416,23.872c-12.416,0-20.456-6.92-20.456-23.8V200H274.623z"/>
	<path style="fill:#FFFFFF;" d="M330.095,253.6v-22.4l-16.92-31.2h11.144l6.448,13.768c1.832,4,3.2,7.008,4.616,10.664h0.168
		c1.352-3.424,2.856-6.768,4.696-10.664L346.679,200h11.064l-17.832,31.04v22.56H330.095z"/>
</g>
<g>
</g>
<g>
</g>
<g>
</g>
<g>
</g>
<g>
</g>
<g>
</g>
<g>
</g>
<g>
</g>
<g>
</g>
<g>
</g>
<g>
</g>
<g>
</g>
<g>
</g>
<g>
</g>
<g>
</g>
</svg>
