<?xml version="1.0" encoding="iso-8859-1"?>
<!-- Generator: Adobe Illustrator 18.0.0, SVG Export Plug-In . SVG Version: 6.00 Build 0)  -->
<!DOCTYPE svg PUBLIC "-//W3C//DTD SVG 1.1//EN" "http://www.w3.org/Graphics/SVG/1.1/DTD/svg11.dtd">
<svg version="1.1" id="Capa_1" xmlns="http://www.w3.org/2000/svg" xmlns:xlink="http://www.w3.org/1999/xlink" x="0px" y="0px"
	 viewBox="0 0 132 132" style="enable-background:new 0 0 132 132;" xml:space="preserve">
<g>
	<path style="fill:#FFFFFF;" d="M21,46.421v15.746h-8.928C8.78,62.167,6,65.057,6,68.478v14.616c0,3.349,2.724,6.073,6.072,6.073
		h3.33c1.746-6.148,7.399-10.668,14.098-10.668c6.699,0,12.352,4.521,14.098,10.668H45v-49H27.416C23.998,40.167,21,43.09,21,46.421
		z M29,47.167h9v15h-9V47.167z"/>
	<path style="fill:#94D5D2;" d="M111,30.167H51v26h75v-11C126,36.896,119.271,30.167,111,30.167z"/>
	<path style="fill:#FFEB97;" d="M51,89.168h5.664h31.738c1.746-6.148,7.398-10.668,14.098-10.668
		c6.699,0,12.352,4.521,14.098,10.668H126v-27H51V89.168z"/>
	<path style="fill:#586065;" d="M111,24.167H45v10H27.416C20.685,34.167,15,39.779,15,46.421v9.746h-2.928
		C5.416,56.167,0,61.69,0,68.478v14.616c0,6.657,5.416,12.073,12.072,12.073h2.915c0.982,7.141,7.106,12.665,14.513,12.665
		c7.406,0,13.531-5.524,14.513-12.665h0.985h17.666h25.323c0.981,7.141,7.106,12.665,14.513,12.665
		c7.406,0,13.531-5.524,14.513-12.665H132v-50C132,33.588,122.579,24.167,111,24.167z M29.5,101.832
		c-4.778,0-8.666-3.888-8.666-8.667c0-4.778,3.888-8.666,8.666-8.666c4.778,0,8.666,3.888,8.666,8.666
		C38.166,97.945,34.278,101.832,29.5,101.832z M45,89.168h-1.402C41.852,83.02,36.199,78.499,29.5,78.499
		c-6.699,0-12.352,4.521-14.098,10.668h-3.33C8.724,89.168,6,86.443,6,83.094V68.478c0-3.421,2.78-6.31,6.072-6.31H21V46.421
		c0-3.331,2.998-6.254,6.416-6.254H45V89.168z M102.5,101.832c-4.778,0-8.666-3.888-8.666-8.667c0-4.778,3.888-8.666,8.666-8.666
		c4.778,0,8.666,3.888,8.666,8.666C111.166,97.945,107.278,101.832,102.5,101.832z M126,89.168h-9.402
		c-1.746-6.148-7.398-10.668-14.098-10.668c-6.699,0-12.352,4.521-14.098,10.668H56.664H51v-27h75V89.168z M126,56.167H51v-26h60
		c8.271,0,15,6.729,15,15V56.167z"/>
	<path style="fill:#94D5D2;" d="M29.5,84.499c-4.778,0-8.666,3.888-8.666,8.666c0,4.779,3.888,8.667,8.666,8.667
		c4.778,0,8.666-3.888,8.666-8.667C38.166,88.387,34.278,84.499,29.5,84.499z"/>
	<path style="fill:#94D5D2;" d="M102.5,84.499c-4.778,0-8.666,3.888-8.666,8.666c0,4.779,3.888,8.667,8.666,8.667
		c4.778,0,8.666-3.888,8.666-8.667C111.166,88.387,107.278,84.499,102.5,84.499z"/>
	<rect x="29" y="47.167" style="fill:#586065;" width="9" height="15"/>
</g>
<g>
</g>
<g>
</g>
<g>
</g>
<g>
</g>
<g>
</g>
<g>
</g>
<g>
</g>
<g>
</g>
<g>
</g>
<g>
</g>
<g>
</g>
<g>
</g>
<g>
</g>
<g>
</g>
<g>
</g>
</svg>
